Coordinates
version=1
nRows=13
nColumns=40
inDegrees=yes

Units are S.I. units (second, meters, Newtons, ...)
Angles are in degrees.

endheader
time	pelvis_tilt	pelvis_list	pelvis_rotation	pelvis_tx	pelvis_ty	pelvis_tz	hip_flexion_r	hip_adduction_r	hip_rotation_r	knee_angle_r	knee_angle_r_beta	ankle_angle_r	subtalar_angle_r	mtp_angle_r	hip_flexion_l	hip_adduction_l	hip_rotation_l	knee_angle_l	knee_angle_l_beta	ankle_angle_l	subtalar_angle_l	mtp_angle_l	lumbar_extension	lumbar_bending	lumbar_rotation	arm_flex_r	arm_add_r	arm_rot_r	elbow_flex_r	pro_sup_r	wrist_flex_r	wrist_dev_r	arm_flex_l	arm_add_l	arm_rot_l	elbow_flex_l	pro_sup_l	wrist_flex_l	wrist_dev_l
      1.78000000	      3.29201587	      0.27899808	      0.21505707	      0.11255265	      0.90092387	      0.98585795	     18.85728455	     -2.98559371	     -7.17650756	    -47.75135746	     -0.83341841	      3.16056319	    -10.10499667	      1.96901624	     -1.72063728	     -3.59448389	     12.39668334	    -11.48287473	     -0.20041397	      5.87538747	     -9.70775446	     -6.49055467	    -10.02162923	      1.18801158	     -2.63318570	      5.23338330	     -9.02046956	     16.07491432	     14.58699763	     89.95437384	      0.00000000	      0.00000000	     14.62613848	     11.76995762	    -21.10883720	     22.32515735	     89.95437384	      0.00000000	      0.00000000
      1.79000000	      3.40383734	      0.19589737	      0.34072216	      0.11897003	      0.90076119	      0.98544275	     19.12424804	     -2.84163499	     -7.46454601	    -45.88125716	     -0.80077900	      3.46768074	     -9.52536589	      1.93227206	     -2.35199690	     -3.52650981	     12.40506527	    -11.39423306	     -0.19886688	      6.25707137	     -9.78764579	     -6.47863343	    -10.13655538	      1.37993084	     -2.79134050	      5.02044976	     -9.11209505	     16.00837042	     14.46740282	     89.95437384	      0.00000000	      0.00000000	     14.99605835	     11.76374590	    -20.49405813	     22.78018627	     89.95437384	      0.00000000	      0.00000000
      1.80000000	      3.69815699	     -0.03315544	      0.47699543	      0.12555647	      0.90087797	      0.98516013	     19.08570236	     -2.60010395	     -8.09650797	    -43.81212398	     -0.76466582	      3.60664288	     -8.90972506	      1.88856921	     -3.25177877	     -3.29301209	     12.28779296	    -11.22189029	     -0.19585893	      6.59708916	     -9.97178505	     -6.48302542	    -10.45080222	      1.73050685	     -2.89382347	      4.83571982	     -9.22275799	     15.95952823	     14.31566577	     89.95437384	      0.00000000	      0.00000000	     15.33243092	     11.70656926	    -19.73449653	     23.33780208	     89.95437384	      0.00000000	      0.00000000
      1.81000000	      3.88717302	     -0.15771445	      0.56693157	      0.13220627	      0.90071196	      0.98504039	     19.18949648	     -2.42156470	     -8.55787933	    -41.83201281	     -0.73010636	      3.73748012	     -8.34484554	      1.84321455	     -4.04285057	     -3.16166314	     12.28067661	    -11.03670978	     -0.19262692	      6.90471762	    -10.13240828	     -6.48499649	    -10.62877726	      1.94483474	     -2.96501660	      4.61665902	     -9.30224505	     15.89976084	     14.18587740	     89.95437384	      0.00000000	      0.00000000	     15.64047324	     11.72353415	    -19.33614905	     23.88537774	     89.95437384	      0.00000000	      0.00000000
      1.82000000	      4.05958715	     -0.26399131	      0.66743840	      0.13870733	      0.90048858	      0.98472852	     19.26733008	     -2.32934198	     -9.21125379	    -39.76254081	     -0.69398726	      3.58936484	     -7.72869892	      1.75521238	     -4.80569072	     -3.06868478	     12.29801361	    -10.85182817	     -0.18940013	      7.18622417	    -10.29940744	     -6.48448005	    -10.82616475	      2.16998385	     -3.03710183	      4.43556472	     -9.40990859	     15.82857319	     14.05469460	     89.95437384	      0.00000000	      0.00000000	     15.92645045	     11.70803639	    -19.08113424	     24.48474644	     89.95437384	      0.00000000	      0.00000000
      1.83000000	      3.77224543	     -0.01784738	      0.55092338	      0.14511314	      0.89929900	      0.98486212	     20.08433371	     -2.57768787	     -9.65183352	    -38.15576494	     -0.66594373	      3.61410711	     -7.45197287	      1.75901866	     -4.96063167	     -3.35765138	     12.38006886	    -10.86690148	     -0.18966321	      7.46032191	    -10.25059194	     -6.47008318	    -10.46158763	      1.92358065	     -2.93747307	      4.12675520	     -9.44370205	     15.79954337	     13.97885059	     89.95437384	      0.00000000	      0.00000000	     16.17114880	     11.75684806	    -19.00198244	     24.95152568	     89.95437384	      0.00000000	      0.00000000
      1.84000000	      3.93352907	     -0.23349622	      0.64017151	      0.15162411	      0.89899306	      0.98479988	     20.04084695	     -2.31947400	    -10.32854390	    -35.93700232	     -0.62721901	      3.09573761	     -6.42252395	      1.64488743	     -5.66516168	     -3.13718931	     12.11183766	    -10.77524395	     -0.18806348	      7.92247063	    -10.27390053	     -6.47815790	    -10.63956348	      2.25499946	     -3.02992742	      4.01302407	     -9.50498022	     15.55476796	     13.81633050	     89.95437384	      0.00000000	      0.00000000	     16.36255216	     11.80788772	    -19.01089032	     25.64372942	     89.95437384	      0.00000000	      0.00000000
      1.85000000	      4.02441105	     -0.22621117	      0.65092508	      0.15814445	      0.89846784	      0.98476662	     20.14693991	     -2.35392131	    -11.11103377	    -33.92552444	     -0.59211210	      2.67382961	     -5.43911176	      1.40311534	     -6.27247477	     -3.16522259	     12.01160411	    -10.72462522	     -0.18718002	      8.26290781	    -10.22785153	     -6.44467266	    -10.74716722	      2.33404198	     -3.03600028	      3.83802961	     -9.54399329	     15.19452658	     13.72279489	     89.95437384	      0.00000000	      0.00000000	     16.56400788	     11.86203057	    -19.17533844	     26.26178045	     89.95437384	      0.00000000	      0.00000000
      1.86000000	      3.71929474	      0.05945946	      0.45097436	      0.16448761	      0.89710709	      0.98489919	     20.94337567	     -2.64506491	    -11.66445901	    -32.41889734	     -0.56581650	      2.50689558	     -5.20709067	      1.42489594	     -6.37983327	     -3.51627923	     12.13162500	    -10.75849107	     -0.18777109	      8.53176200	    -10.15711402	     -6.42703967	    -10.39617339	      2.07143647	     -2.82381966	      3.61367728	     -9.61196931	     15.15113100	     13.58609393	     89.95437384	      0.00000000	      0.00000000	     16.74267665	     11.80517406	    -19.16586141	     26.74105485	     89.95437384	      0.00000000	      0.00000000
      1.87000000	      3.69003247	     -0.12898960	      0.50430831	      0.17084242	      0.89642500	      0.98510119	     21.03112452	     -2.40515582	    -12.36732697	    -30.21031541	     -0.52726947	      0.94915723	     -3.96713022	      1.39258674	     -6.74914353	     -3.29469019	     11.83317365	    -10.92489512	     -0.19067539	      9.06347688	    -10.10011524	     -6.42990430	    -10.41638090	      2.35776107	     -2.94801709	      3.56776769	     -9.60832797	     14.79770637	     13.42006341	     89.95437384	      0.00000000	      0.00000000	     16.74563317	     11.96728189	    -19.42188726	     27.59122965	     89.95437384	      0.00000000	      0.00000000
      1.88000000	      3.56981550	     -0.00804251	      0.46154158	      0.17730277	      0.89543214	      0.98522104	     21.39701225	     -2.53111167	    -13.08797898	    -28.53810678	     -0.49808393	      0.23480705	     -3.38332674	      1.39848826	     -7.04075641	     -3.42989784	     11.85444921	    -11.01345909	     -0.19222112	      9.43506583	    -10.04149439	     -6.43602449	    -10.29884736	      2.29561737	     -2.98946047	      3.44576860	     -9.62757463	     14.58601959	     13.35816023	     89.95437384	      0.00000000	      0.00000000	     16.82086511	     12.00847109	    -19.52548177	     28.12388500	     89.95437384	      0.00000000	      0.00000000
      1.89000000	      3.66419088	     -0.20253508	      0.46267762	      0.18386507	      0.89477378	      0.98566497	     21.38343011	     -2.35235561	    -14.22681553	    -26.71725037	     -0.46630399	     -1.05775203	     -2.41539951	      1.34490344	     -7.50623878	     -3.17002625	     11.66576351	    -11.28144972	     -0.19689844	      9.90345330	     -9.99301356	     -6.45082807	    -10.45557503	      2.55756813	     -2.96673761	      3.41391094	     -9.60254321	     14.21307492	     13.15773127	     89.95437384	      0.00000000	      0.00000000	     16.82797768	     12.09583227	    -19.71886922	     28.90202345	     89.95437384	      0.00000000	      0.00000000
      1.90000000	      3.47194254	      0.00520710	      0.21567673	      0.18999029	      0.89350534	      0.98618119	     22.06232974	     -2.53374045	    -14.87748133	    -25.75851548	     -0.44957091	     -1.08609150	     -2.32503255	      1.35163051	     -7.68145469	     -3.41472313	     11.73577964	    -11.38607309	     -0.19872446	     10.09641766	     -9.93668652	     -6.44428941	    -10.35366353	      2.36682998	     -2.72685835	      3.35903719	     -9.61975377	     14.18012900	     13.07556500	     89.95437384	      0.00000000	      0.00000000	     16.99855095	     12.02483260	    -19.70208360	     29.24515555	     89.95437384	      0.00000000	      0.00000000
